<!DOCTYPE svg PUBLIC "-//W3C//DTD SVG 1.1//EN" "http://www.w3.org/Graphics/SVG/1.1/DTD/svg11.dtd">
<!-- Uploaded to: SVG Repo, www.svgrepo.com, Transformed by: SVG Repo Mixer Tools -->
<svg fill="#000000" width="64px" height="64px" viewBox="0 0 256.00 256.00" id="Flat" xmlns="http://www.w3.org/2000/svg" stroke="#000000" stroke-width="3.84" transform="rotate(0)matrix(1, 0, 0, 1, 0, 0)">
<g id="SVGRepo_bgCarrier" stroke-width="0"/>
<g id="SVGRepo_tracerCarrier" stroke-linecap="round" stroke-linejoin="round" stroke="#CCCCCC" stroke-width="1.024"/>
<g id="SVGRepo_iconCarrier"> <path d="M220,128.00037a4.0002,4.0002,0,0,1-4,4H40a4,4,0,0,1,0-8H216A4.0002,4.0002,0,0,1,220,128.00037Zm-180-60H216a4,4,0,0,0,0-8H40a4,4,0,1,0,0,8Zm176,120H40a4,4,0,0,0,0,8H216a4,4,0,0,0,0-8Z"/> </g>
</svg>