<?xml version="1.0" encoding="UTF-8"?>
<svg version="1.1" viewBox="0 0 1680 1696" width="105" height="106" xmlns="http://www.w3.org/2000/svg">
<path transform="translate(720)" d="m0 0h39l9 3 12 5 18 6 16 8 11 7 11 9 7 7 10 14 8 16 6 16 4 18 2 16v34l-3 32-5 29-7 38-9 36-8 30-12 40-12 36-8 23-16 42-17 40-10 22-6 13-12 25-15 27-10 17-13 19-8 7-5 2h-23l-12-2-5-4 1-9 10-25 14-33 12-29 15-34 11-26 13-31 11-27 11-29 13-35 12-36 9-30 10-37 5-25 6-45 2-24v-21l-3-31-4-15-5-12-7-12-9-10-8-6-11-4-12-2h-17l-19 2-22 5-26 9-24 10-22 11-27 16-11 7-22 15-21 16-12 10-11 9-16 15-8 7-10 9-10 10h-2v2l-7 6-1 2h-2v2h-2v2l-7 6-7 8-9 9-8 10-12 13-7 8-12 14-18 22-14 19-11 16-14 19-10 15-11 18-18 27-11 19-8 13-15 27-9 16-18 34-8 16-20 41-16 36-10 23-14 35-15 41-12 36-9 28-11 37-15 55-11 49-8 39-13 74-4 31-4 39-4 52v73l4 53 5 44 5 29 10 36 11 33 13 30 15 28 14 21 11 14 12 14 18 18 11 9 15 11 20 12 16 8 19 8 25 7 26 4 13 1h49l25-3 35-7 28-8 35-13 43-19 32-16 19-10 29-16 28-17 19-12 25-17 18-13 13-10 16-13 11-9 28-24 12-12h2v-2l8-7 5-6 6-5 7-8 9-9 7-8 8-9 9-11 12-14 13-17 10-13 13-18 22-32 9-13 13-19 12-18 15-23 9-15 10-17 11-23 13-33 9-29 14-50 12-44 12-45 16-61 18-71 12-50 18-72 12-46 11-36 8-20 7-9 3-3 5 1 13 10 5 4 1 5-12 50-10 41-19 75-7 26-15 57-7 28-11 43-16 64-9 38-5 33-2 16-6 17 8-7 12-16 17-28 38-57 9-12 10-14 10-13 10-14 13-16 11-14 7-7 9-11 7-7 7-8 23-23 8-7 10-9 14-11 13-10 24-16 19-12 16-9 22-11 15-6 27-9 20-4 25-2 21 1 16 5 9 6 8 8 8 13 6 18 2 11v37l-4 25-8 30-8 24-15 35-19 38-11 19-8 14-15 23-22 33-9 12-11 14-9 11-10 13-12 14-7 8-3 4h-2l-2 4-32 32h-2v2h-2l-1 3-8 7-10 9-14 11-17 14-14 11-13 11-22 18-51 34-25 15-22 14-20 12-13 8-22 12-5 4h-2v3l4 2 12 9 16 8 34 16 26 10 28 10 27 8 19 4 32 3h21l27-3 26-5 17-5 27-10 25-12 16-9 18-11 24-16 18-13 18-14 13-10 15-12 17-13 13-11 14-11 17-14 17-13 20-15 14-9 14-7 11-1v38l-14 11-15 12-20 15-13 10-10 8-14 11-26 20-11 8-12 9-18 14-19 14-35 24-21 13-25 13-29 11-22 7-33 8-29 5-10 1h-47l-28-4-35-10-27-9-23-9-28-11-50-20-30-11-25-8-16-4-1 5-4 11-8 25-7 27-9 40-7 29-11 50-8 37-20 85-11 39h-43l-1-30 3-42 4-32 10-50 8-30 20-60 13-37 19-56 10-33 8-29 5-19 6-22 4-22-5 4-7 11-29 43-12 17-10 14-13 17-9 11-11 13-11 12-5 6h-2l-2 4-15 15-6 7-16 16-8 7-13 13-8 7-10 9-11 9-10 9-19 14-36 26-17 11-19 12-25 15-32 17-37 18-32 13-18 7-39 12-25 6-34 6-25 3-12 1-25 1h-23l-27-1-22-2-27-5-28-7-22-8-25-11-21-11-19-12-14-11-15-13-19-19-11-14-10-13-13-20-9-16-13-25-11-27-7-19-11-36-11-49-6-28-3-15v-204l6-26 9-47 11-62 9-43 16-64 8-29 13-43 9-27 10-29 11-31 13-33 15-36 24-54 19-39 8-16 14-26 15-27 8-14 16-27 7-11 10-16 24-36 10-14 13-18 10-13 7-9 9-12 12-15 11-14 10-11 9-11 7-7 7-8 11-11 7-8 24-24 8-7 8-8 11-9 14-12 10-8 15-11 18-13 16-11 17-11 18-11 32-17 22-10 23-9 28-9 40-11 12-4zm743 723-21 5-22 7-16 7-20 10-17 11-13 9-18 13-11 9-13 11-8 7-13 12-30 30-7 8-10 11-9 11-7 8-13 17-9 13-14 19-10 13-11 17-23 35-9 16-8 13-8 14-7 14-9 16-8 16-13 25-11 23-17 36-22 50-14 35-7 21-2 10h18l11-2 28-11 26-11 32-17 18-11 14-9 20-13 17-12 21-16 17-14 11-9 10-9 11-9 12-11 10-8 16-15 40-40 7-8 11-12 9-11 11-12 12-16 13-16 16-24 15-23 12-20 9-16 14-27 11-23 12-31 5-15 7-29 4-24v-12l-3-11-6-11-5-6-8-5-10-3z" fill="#BB738F"/>
</svg>
